<svg width="170" height="42" viewBox="0 0 170 42" fill="none" xmlns="http://www.w3.org/2000/svg">
<path d="M41.829 29.27C39.309 29.27 37.428 28.748 36.186 27.704C34.962 26.642 34.35 25.202 34.35 23.384V22.925H37.212V23.222C37.212 24.41 37.545 25.274 38.211 25.814C38.877 26.336 40.119 26.597 41.937 26.597C43.251 26.597 44.187 26.408 44.745 26.03C45.303 25.652 45.582 25.04 45.582 24.194C45.582 23.348 45.366 22.736 44.934 22.358C44.52 21.98 43.629 21.656 42.261 21.386L39.183 20.765C35.997 20.153 34.404 18.497 34.404 15.797C34.404 14.339 34.98 13.115 36.132 12.125C37.284 11.135 38.958 10.64 41.154 10.64C43.512 10.64 45.267 11.207 46.419 12.341C47.571 13.475 48.147 14.915 48.147 16.661V16.985H45.285V16.688C45.285 15.536 44.97 14.69 44.34 14.15C43.728 13.592 42.639 13.313 41.073 13.313C39.759 13.313 38.805 13.502 38.211 13.88C37.617 14.258 37.32 14.852 37.32 15.662C37.32 16.472 37.536 17.048 37.968 17.39C38.4 17.732 39.255 18.038 40.533 18.308L43.611 18.956C46.869 19.622 48.498 21.332 48.498 24.086C48.498 25.598 47.931 26.84 46.797 27.812C45.681 28.784 44.025 29.27 41.829 29.27ZM53.0209 33.59C52.2289 33.59 51.5539 33.509 50.9959 33.347V30.971H52.8319C53.4259 30.971 53.8489 30.89 54.1009 30.728C54.3709 30.584 54.6139 30.269 54.8299 29.783L55.3429 28.649L49.6459 15.581H52.8589L55.5589 22.088L56.7739 25.004H56.9899L58.0969 22.088L60.5539 15.581H63.7669L57.4219 30.593C56.9359 31.727 56.3509 32.51 55.6669 32.942C55.0009 33.374 54.1189 33.59 53.0209 33.59ZM68.3812 29H65.4652V15.581H68.1382V18.092H68.2462C69.0562 16.238 70.5862 15.311 72.8362 15.311C75.1042 15.311 76.5892 16.238 77.2912 18.092H77.3722C78.2002 16.238 79.7482 15.311 82.0162 15.311C83.6722 15.311 84.9142 15.788 85.7422 16.742C86.5882 17.696 87.0112 18.974 87.0112 20.576V29H84.0952V21.224C84.0952 20 83.8612 19.127 83.3932 18.605C82.9432 18.083 82.1242 17.822 80.9362 17.822C79.8022 17.822 78.9742 18.083 78.4522 18.605C77.9482 19.127 77.6962 19.991 77.6962 21.197V29H74.7802V21.224C74.7802 20 74.5462 19.127 74.0782 18.605C73.6282 18.083 72.8092 17.822 71.6212 17.822C70.4872 17.822 69.6592 18.083 69.1372 18.605C68.6332 19.127 68.3812 19.982 68.3812 21.17V29ZM95.7691 29.27C93.6271 29.27 92.0071 28.649 90.9091 27.407C89.8111 26.147 89.2621 24.437 89.2621 22.277C89.2621 20.189 89.8471 18.506 91.0171 17.228C92.1871 15.95 93.7621 15.311 95.7421 15.311C97.5781 15.311 99.0631 15.833 100.197 16.877C101.331 17.921 101.898 19.343 101.898 21.143C101.898 21.827 101.844 22.439 101.736 22.979H91.9891C92.0431 24.257 92.3491 25.193 92.9071 25.787C93.4831 26.381 94.4461 26.678 95.7961 26.678C97.8661 26.678 98.9011 26.021 98.9011 24.707V24.491H101.79V24.734C101.79 26.102 101.241 27.2 100.143 28.028C99.0451 28.856 97.5871 29.27 95.7691 29.27ZM95.6881 17.768C94.4641 17.768 93.5641 18.047 92.9881 18.605C92.4301 19.145 92.1061 19.955 92.0161 21.035H99.1171C99.1711 19.919 98.9011 19.1 98.3071 18.578C97.7311 18.038 96.8581 17.768 95.6881 17.768ZM107.273 29H104.357V15.581H107.03V18.092H107.138C107.948 16.238 109.505 15.311 111.809 15.311C113.483 15.311 114.743 15.788 115.589 16.742C116.435 17.696 116.858 18.974 116.858 20.576V29H113.942V21.224C113.942 20 113.708 19.127 113.24 18.605C112.772 18.083 111.935 17.822 110.729 17.822C109.523 17.822 108.641 18.083 108.083 18.605C107.543 19.127 107.273 20.009 107.273 21.251V29ZM125.266 29C123.718 29 122.566 28.685 121.81 28.055C121.072 27.407 120.703 26.345 120.703 24.869V18.011H118.462V15.581H120.757L121.378 12.26H123.619V15.581H127.669V18.011H123.619V24.734C123.619 25.418 123.781 25.868 124.105 26.084C124.447 26.282 125.086 26.381 126.022 26.381H127.669V28.757C126.985 28.919 126.184 29 125.266 29ZM134.664 29.27C132.99 29.27 131.721 28.775 130.857 27.785C130.011 26.795 129.588 25.49 129.588 23.87V15.581H132.504V23.357C132.504 24.563 132.756 25.436 133.26 25.976C133.764 26.498 134.592 26.759 135.744 26.759C136.914 26.759 137.787 26.48 138.363 25.922C138.957 25.346 139.254 24.419 139.254 23.141V15.581H142.17V29H139.47V26.327H139.362C138.534 28.289 136.968 29.27 134.664 29.27ZM147.957 29H145.041V15.581H147.714V18.092H147.822C148.632 16.238 150.162 15.311 152.412 15.311C154.68 15.311 156.165 16.238 156.867 18.092H156.948C157.776 16.238 159.324 15.311 161.592 15.311C163.248 15.311 164.49 15.788 165.318 16.742C166.164 17.696 166.587 18.974 166.587 20.576V29H163.671V21.224C163.671 20 163.437 19.127 162.969 18.605C162.519 18.083 161.7 17.822 160.512 17.822C159.378 17.822 158.55 18.083 158.028 18.605C157.524 19.127 157.272 19.991 157.272 21.197V29H154.356V21.224C154.356 20 154.122 19.127 153.654 18.605C153.204 18.083 152.385 17.822 151.197 17.822C150.063 17.822 149.235 18.083 148.713 18.605C148.209 19.127 147.957 19.982 147.957 21.17V29Z" fill="black"/>
<path d="M0 21.7606V9.59055L21.7864 20.0686V32.4094L0 21.7606Z" fill="#73CBFA"/>
<path d="M21.7871 32.2002V20.1732L0.000701904 30.1957V42L21.7871 32.2002Z" fill="#883AEA"/>
<path d="M0 9.79979V21.8268L21.7864 11.8043V1.14441e-05L0 9.79979Z" fill="#142483"/>
</svg>
